HIERARCHY
ROOT Hips
{
	OFFSET 0.000000 0.000000 0.000000
	CHANNELS 6 Xposition Yposition Zposition Zrotation Yrotation Xrotation 
	JOINT LHipJoint
	{
		OFFSET 0.000000 0.000000 0.000000
		CHANNELS 3 Zrotation Yrotation Xrotation
		JOINT LeftUpLeg
		{
			OFFSET 1.363060 -1.794630 0.839290
			CHANNELS 3 Zrotation Yrotation Xrotation
			JOINT LeftLeg
			{
				OFFSET 2.448110 -6.726130 0.000000
				CHANNELS 3 Zrotation Yrotation Xrotation
				JOINT LeftFoot
				{
					OFFSET 2.562200 -7.039590 0.000000
					CHANNELS 3 Zrotation Yrotation Xrotation
					JOINT LeftToeBase
					{
						OFFSET 0.157640 -0.433110 2.322550
						CHANNELS 3 Zrotation Yrotation Xrotation
						End Site
						{
							OFFSET 0.000000 0.000000 0.000000
						}
					}
				}
			}
		}
	}
	JOINT RHipJoint
	{
		OFFSET 0.000000 0.000000 0.000000
		CHANNELS 3 Zrotation Yrotation Xrotation
		JOINT RightUpLeg
		{
			OFFSET -1.305520 -1.794630 0.839290
			CHANNELS 3 Zrotation Yrotation Xrotation
			JOINT RightLeg
			{
				OFFSET -2.542530 -6.985550 0.000000
				CHANNELS 3 Zrotation Yrotation Xrotation
				JOINT RightFoot
				{
					OFFSET -2.568260 -7.056230 0.000000
					CHANNELS 3 Zrotation Yrotation Xrotation
					JOINT RightToeBase
					{
						OFFSET -0.164730 -0.452590 2.363150
						CHANNELS 3 Zrotation Yrotation Xrotation
						End Site
						{
							OFFSET 0.000000 0.000000 0.000000
						}
					}
				}
			}
		}
	}
}
MOTION
Frames: 24
Frame Time: 0.008333
25.517641 16.046484 1.895855 163.954257 -82.344563 -150.437997 -9.439227 -0.317007 3.073140 -12.265885 -3.345172 -50.442143 -1.005050 2.167705 48.962041 2.113240 8.694587 -14.675713 -1.020300 0.000000 -16.649000 10.478095 -5.119130 0.597200 0.595457 -4.154944 9.669470 1.327424 -1.956749 22.217886 0.824421 10.617507 6.940017 2.290100 0.000000 -85.795000
25.338297 16.039401 1.911866 162.813213 -82.185237 -149.619921 -9.408046 -0.245489 2.930506 -12.781484 -3.180457 -49.515300 -1.032415 2.167338 49.593432 2.194512 8.942451 -15.848895 -1.282000 -0.000000 -16.387999 10.708757 -5.178215 0.502865 -0.271515 -4.695472 8.364313 1.032665 -2.257613 25.573740 0.736104 11.292352 9.386672 2.942300 -0.000000 -87.662501
25.162764 16.032659 1.927913 161.397903 -82.036467 -148.524828 -9.355299 -0.164643 2.784268 -13.356650 -3.032038 -48.529079 -1.070213 2.157580 50.116290 2.265916 9.127522 -16.982891 -1.541900 -0.000000 -16.198500 10.975887 -5.201459 0.401301 -1.193595 -5.308795 6.882318 0.722408 -2.530987 29.128380 0.599755 11.856205 11.901167 3.649800 0.000000 -88.251100
24.991276 16.026360 1.943816 159.754717 -81.896868 -147.192104 -9.281333 -0.073215 2.637788 -13.979207 -2.904326 -47.495540 -1.115511 2.140818 50.534097 2.329180 9.263516 -18.054004 -1.792600 0.000000 -16.061700 11.267917 -5.179583 0.291885 -2.133719 -5.959416 5.266002 0.412828 -2.772426 32.817102 0.419250 12.177286 14.360339 4.325900 0.000000 -87.447501
24.823363 16.020858 1.959826 158.018889 -81.776165 -145.758832 -9.193197 0.027213 2.495320 -14.616506 -2.788319 -46.425228 -1.164737 2.118704 50.856233 2.384535 9.356126 -19.050581 -2.028601 -0.000000 -15.959500 11.566809 -5.113437 0.176144 -3.031879 -6.610281 3.565039 0.119386 -2.985104 36.576490 0.204995 12.108812 16.615036 4.846300 0.000000 -85.356000
24.659001 16.016744 1.975360 156.123385 -81.678563 -144.162348 -9.085491 0.138155 2.360708 -15.274393 -2.695366 -45.311034 -1.216577 2.090173 51.073362 2.435328 9.426412 -19.962087 -2.248500 -0.000000 -15.869200 11.873551 -5.005473 0.049806 -3.891340 -7.270674 1.803498 -0.150416 -3.178937 40.369159 -0.030151 11.557829 18.518088 5.095400 0.000000 -82.212200
24.497738 16.014656 1.990803 154.190212 -81.603250 -142.524678 -8.968700 0.258469 2.233434 -15.921892 -2.608344 -44.160822 -1.270677 2.058950 51.189083 2.481286 9.475993 -20.792201 -2.451099 -0.000000 -15.777800 12.170236 -4.859017 -0.090365 -4.668580 -7.919192 0.012337 -0.396649 -3.363808 44.151809 -0.275967 10.433009 19.942304 4.971200 -0.000000 -78.447000
24.339014 16.015534 2.005964 152.200438 -81.550769 -140.830988 -8.841638 0.388536 2.117191 -16.557744 -2.528797 -42.967862 -1.327181 2.023590 51.188994 2.524279 9.516025 -21.539696 -2.636801 0.000000 -15.674600 12.456993 -4.681560 -0.241837 -5.362892 -8.555242 -1.798042 -0.624866 -3.548733 47.891109 -0.527079 8.720999 20.799512 4.439600 0.000000 -74.433000
24.182469 16.020202 2.020877 150.199019 -81.516564 -139.123553 -8.709647 0.527175 2.010778 -17.169122 -2.446204 -41.735080 -1.387474 1.985439 51.065328 2.564016 9.545270 -22.210347 -2.805800 0.000000 -15.558400 12.726819 -4.477287 -0.403260 -5.958823 -9.164411 -3.619248 -0.842470 -3.738901 51.554043 -0.781418 6.463842 21.032762 3.532000 0.000000 -70.460701
24.027299 16.029414 2.035666 148.218856 -81.496372 -137.432815 -8.576520 0.673119 1.914657 -17.747980 -2.353524 -40.462594 -1.452946 1.944172 50.806537 2.599837 9.559866 -22.807855 -2.956900 -0.000000 -15.433501 12.975912 -4.251888 -0.569482 -6.448502 -9.733408 -5.448958 -1.055493 -3.935903 55.106128 -1.038658 3.769553 20.622344 2.348200 0.000000 -66.630900
23.872960 16.043943 2.050351 146.287687 -81.482803 -135.780284 -8.445466 0.825097 1.828234 -18.290061 -2.245806 -39.149825 -1.525360 1.899329 50.398206 2.630674 9.554020 -23.333131 -3.088500 -0.000000 -15.308900 13.201309 -4.009512 -0.735520 -6.830170 -10.249388 -7.287564 -1.267072 -4.138364 58.509634 -1.297727 0.798456 19.585143 1.035700 -0.000000 -62.901200
23.719013 16.064269 2.065204 144.460500 -81.470282 -134.216623 -8.323388 0.980535 1.750263 -18.784509 -2.114611 -37.798486 -1.606148 1.850724 49.831387 2.654110 9.516032 -23.786895 -3.196800 -0.000001 -15.196400 13.396452 -3.755123 -0.896125 -7.095737 -10.697939 -9.133828 -1.477075 -4.342162 61.723297 -1.555476 -2.264629 17.974899 -0.243200 0.000000 -59.151200
23.564845 16.090894 2.080251 142.753430 -81.449831 -132.752606 -8.212070 1.137663 1.679414 -19.232693 -1.962108 -36.402002 -1.696694 1.796958 49.087368 2.669026 9.442386 -24.162659 -3.279000 -0.000000 -15.104300 13.559716 -3.491542 -1.047218 -7.253994 -11.070241 -10.986037 -1.682128 -4.542020 64.702033 -1.805653 -5.225630 15.884274 -1.338600 -0.000000 -55.239400
23.409938 16.123968 2.095833 141.220764 -81.426038 -131.443439 -8.116835 1.293088 1.617179 -19.622077 -1.784823 -34.955840 -1.796378 1.735449 48.159942 2.673011 9.323791 -24.455833 -3.331300 -0.000000 -15.039400 13.686977 -3.227974 -1.180954 -7.298599 -11.357010 -12.835797 -1.875969 -4.731485 67.402106 -2.039061 -7.915288 13.432214 -2.144800 -0.000000 -51.061500
23.253614 16.163508 2.112167 139.894514 -81.399057 -130.320211 -8.040850 1.444002 1.563685 -19.946824 -1.586232 -33.451916 -1.904427 1.664069 47.039560 2.665141 9.160664 -24.658729 -3.351600 -0.000000 -15.002000 13.775564 -2.969799 -1.293319 -7.233294 -11.553496 -14.672827 -2.050997 -4.904065 69.784210 -2.243838 -10.195665 10.752641 -2.611100 -0.000000 -46.557299
23.095762 16.209273 2.129457 138.802676 -81.371673 -129.413699 -7.987378 1.587261 1.518870 -20.199228 -1.371100 -31.881801 -2.019200 1.580880 45.720850 2.645046 8.957593 -24.764292 -3.339700 0.000000 -14.987200 13.822849 -2.721862 -1.382277 -7.060899 -11.658617 -16.482629 -2.199129 -5.053854 71.816928 -2.407396 -11.972396 7.981329 -2.744400 -0.000000 -41.734400
22.935990 16.260815 2.147938 137.974594 -81.350037 -128.754854 -7.959937 1.719840 1.482939 -20.370105 -1.145043 -30.239304 -2.137988 1.484288 44.204699 2.613181 8.723961 -24.767761 -3.297499 -0.000000 -14.986599 13.826322 -2.488621 -1.447091 -6.782106 -11.674004 -18.249002 -2.312774 -5.175853 73.477857 -2.518761 -13.197328 5.245609 -2.600000 0.000000 -36.682800
22.774087 16.317828 2.167956 137.441788 -81.336856 -128.379052 -7.963526 1.838669 1.454329 -20.450095 -0.915207 -28.513978 -2.257772 1.373335 42.487634 2.570937 8.476653 -24.662600 -3.228700 0.000000 -14.992900 13.781895 -2.271696 -1.490776 -6.398087 -11.601511 -19.950121 -2.385970 -5.265489 74.748450 -2.571145 -13.867867 2.665549 -2.264900 -0.000000 -31.595799
22.609977 16.378993 2.189279 137.187171 -81.344730 -128.274060 -7.994257 1.942660 1.435099 -20.438669 -0.692244 -26.708126 -2.373882 1.247033 40.587746 2.520643 8.230710 -24.451728 -3.139000 -0.000000 -14.996900 13.695765 -2.074358 -1.512881 -5.915647 -11.453812 -21.574247 -2.415632 -5.322198 75.630682 -2.562327 -14.015895 0.334991 -1.833501 0.000000 -26.764499
22.443596 16.443649 2.212089 137.235450 -81.377508 -128.466241 -8.055798 2.030147 1.423418 -20.329341 -0.482309 -24.822749 -2.482167 1.106218 38.516051 2.464396 8.003921 -24.134910 -3.033699 -0.000000 -14.999900 13.566280 -1.895820 -1.517644 -5.333533 -11.234999 -23.106189 -2.401871 -5.344302 76.126730 -2.496792 -13.711495 -1.665470 -1.393099 -0.000000 -22.544800
22.274937 16.510796 2.236353 137.595251 -81.441209 -128.963680 -8.148170 2.101119 1.418471 -20.121387 -0.291201 -22.866803 -2.578091 0.952391 36.293391 2.404275 7.810247 -23.715298 -2.917500 0.000001 -15.011301 13.396095 -1.734986 -1.508313 -4.653595 -10.953294 -24.538167 -2.347697 -5.332466 76.251155 -2.383888 -13.046225 -3.294698 -1.004100 -0.000000 -19.247200
22.104071 16.579328 2.261859 138.267922 -81.539612 -129.768566 -8.270131 2.156831 1.418921 -19.817352 -0.121346 -20.854355 -2.657541 0.788243 33.946039 2.341500 7.657183 -23.196161 -2.793100 0.000000 -15.050300 13.189357 -1.589476 -1.488606 -3.879411 -10.618546 -25.867015 -2.257889 -5.288972 76.026756 -2.236866 -12.126012 -4.559863 -0.694600 0.000000 -17.020700
21.931395 16.648197 2.288347 139.254253 -81.675085 -130.880052 -8.419592 2.199942 1.423114 -19.423528 0.029115 -18.805470 -2.717285 0.617573 31.505343 2.276155 7.543723 -22.580569 -2.660500 0.000000 -15.146200 12.950870 -1.455933 -1.461984 -3.016194 -10.240761 -27.095644 -2.137503 -5.217126 75.481150 -2.071205 -11.061841 -5.514130 -0.465600 -0.000000 -15.813300
21.756898 16.716351 2.315436 140.547445 -81.847945 -132.287098 -8.592795 2.234801 1.429746 -18.949519 0.167022 -16.744859 -2.755404 0.444887 29.006775 2.207146 7.459684 -21.871359 -2.517600 -0.000000 -15.336100 12.686746 -1.330880 -1.430751 -2.072667 -9.831397 -28.230805 -1.990735 -5.120992 74.643332 -1.902480 -9.959301 -6.245175 -0.301700 0.000000 -15.383600
